<svg width="24px" height="24px" viewBox="0 0 24 24" xmlns="http://www.w3.org/2000/svg">
    <title>skip_next</title>
    <g fill="none">
        <rect width="24" height="24"></rect>
        <path d="M7.58,16.89 L13.35,12.82 C13.91,12.42 13.91,11.58 13.35,11.19 L7.58,7.11 
                 C6.91,6.65 6,7.12 6,7.93 L6,16.07 C6,16.88 6.91,17.35 7.58,16.89 Z 
                 M16,7 L16,17 C16,17.55 16.45,18 17,18 C17.55,18 18,17.55 18,17 
                 L18,7 C18,6.45 17.55,6 17,6 C16.45,6 16,6.45 16,7 Z" fill="#fff"/>
    </g>
</svg>

