<svg width="24px" height="24px" viewBox="0 0 24 24" xmlns="http://www.w3.org/2000/svg">
    <title>skip_previous</title>
    <g fill="none">
        <rect width="24" height="24"></rect>
        <path d="M7,6 C7.55,6 8,6.45 8,7 L8,17 C8,17.55 7.55,18 7,18 C6.45,18 6,17.55 6,17 L6,7 C6,6.45 6.45,6 7,6 Z 
                 M10.66,12.82 L16.43,16.89 C17.09,17.36 18.01,16.88 18.01,16.07 L18.01,7.93 C18.01,7.12 17.1,6.65 16.43,7.11 
                 L10.66,11.18 C10.09,11.58 10.09,12.42 10.66,12.82 Z" fill="#fff"/>
    </g>
</svg>
